PathFileType	4	(X/Y/Z)	c:/Users/goper/Files/vsCode/490R/osim_files/C15/C15_SSWS_06.trc
DataRate	CameraRate	NumFrames	NumMarkers	Units                	OrigDataRate	OrigDataStartFrame	OrigNumFrames
250.00	250.00	5	36	mm	250.0	1334	2667
                Frame#	Time	LPSIS			LASIS			LTH1			LTH2			LTH3			LTH4			LLFE			LMFE			LSH1			LSH2			LSH3			LSH4			LLMAL			LMMAL			LCAL			LMTP5			LTOE			LMTP1			RPSIS			RASIS			RTH1			RTH2			RTH3			RTH4			RLFE			RMFE			RSH1			RSH2			RSH3			RSH4			RLMAL			RMMAL			RCAL			RMTP1			RTOE			RMTP5		
		X1	Y1	Z1	X2	Y2	Z2	X3	Y3	Z3	X4	Y4	Z4	X5	Y5	Z5	X6	Y6	Z6	X7	Y7	Z7	X8	Y8	Z8	X9	Y9	Z9	X10	Y10	Z10	X11	Y11	Z11	X12	Y12	Z12	X13	Y13	Z13	X14	Y14	Z14	X15	Y15	Z15	X16	Y16	Z16	X17	Y17	Z17	X18	Y18	Z18	X19	Y19	Z19	X20	Y20	Z20	X21	Y21	Z21	X22	Y22	Z22	X23	Y23	Z23	X24	Y24	Z24	X25	Y25	Z25	X26	Y26	Z26	X27	Y27	Z27	X28	Y28	Z28	X29	Y29	Z29	X30	Y30	Z30	X31	Y31	Z31	X32	Y32	Z32	X33	Y33	Z33	X34	Y34	Z34	X35	Y35	Z35	X36	Y36	Z36

1334	5.33200	-406.21082	999.12573	269.66589	-576.81653	975.07971	318.46445	-597.66858	594.07831	384.50494	-611.77222	551.66107	367.48688	-644.56024	616.58435	382.86624	-658.15753	574.81134	371.56744	-652.65521	488.62613	346.80716	-655.99493	474.96375	224.24281	-623.38544	369.44513	356.55286	-635.45618	326.25790	359.56342	-684.57153	381.26880	357.08908	-688.13007	337.48914	361.31253	-723.51208	81.99461	303.27460	-740.34735	112.11111	214.31839	-670.90094	52.90125	256.92773	-853.89087	48.79563	318.28775	-902.40411	91.69032	261.02771	-867.92383	56.11562	204.05362	-400.59680	1002.12299	148.77231	-550.22192	970.77686	72.01272	-427.33124	611.36066	32.08384	-420.52444	566.39526	41.48814	-486.31387	600.17633	43.57220	-472.35757	554.76941	48.42814	-407.27411	470.54086	67.10340	-395.11740	458.87170	184.66084	-285.93768	405.49109	55.25882	-267.21222	366.43155	53.57000	-340.06641	371.26355	54.05644	-311.67044	338.39600	50.32807	-171.49567	117.52129	120.94319	-209.60123	131.63890	206.09328	-102.67200	105.00760	169.55602	-292.80099	38.70024	206.41176	-324.98761	53.70762	152.25032	-261.24738	30.89844	89.89497
1335	5.33600	-411.40836	999.47705	269.81213	-581.60468	975.31726	318.90262	-602.72864	594.81726	384.69595	-616.55762	552.24841	367.90002	-649.62262	617.25555	382.75403	-663.10913	575.32056	371.60110	-657.46460	489.19055	347.13577	-659.21246	475.00348	223.95927	-628.31537	370.24094	357.26935	-639.91888	327.07019	360.50790	-689.54572	381.64624	357.54715	-692.65247	337.89734	361.84943	-724.36371	81.82890	303.42734	-741.53497	111.64238	214.47801	-671.02472	53.65593	257.00000	-854.35852	46.99098	318.61765	-903.75214	89.12679	261.42929	-868.73975	54.36112	204.39464	-405.47195	1001.93652	149.13161	-555.13574	970.41785	72.44657	-432.05963	610.95978	32.46037	-422.03134	567.27826	40.86895	-491.07773	599.75873	43.83788	-477.15042	554.33362	48.58721	-412.02859	470.06613	67.46703	-400.00995	458.29443	184.86687	-290.15829	406.19650	55.37943	-271.01834	367.32394	53.71113	-343.48105	371.06244	53.54245	-315.33887	338.89594	50.39611	-172.77544	119.23032	120.57346	-211.08882	132.83112	205.61931	-103.99645	107.47874	169.14754	-293.07224	38.80173	206.27179	-325.13492	53.68683	152.12720	-261.47449	30.95917	89.90115
1336	5.34000	-416.31906	999.86804	270.12857	-586.53217	975.72882	319.43881	-607.91162	595.53210	385.06921	-621.43848	552.94214	368.38425	-654.80774	617.90570	382.85944	-668.03839	575.95166	371.76752	-662.63116	489.88062	347.46970	-662.27545	475.06335	223.80664	-633.16864	371.18436	358.25702	-644.55072	327.90347	361.66263	-694.48676	381.97574	357.96436	-697.17841	338.46982	362.56161	-725.18176	81.75260	303.54929	-742.53687	111.29121	214.65448	-671.18768	54.37358	256.95813	-854.80756	45.47275	318.88870	-904.90442	86.96221	261.77487	-869.44049	52.69704	204.69653	-410.42603	1001.78839	149.40375	-560.15442	970.05646	73.00259	-436.74133	610.72357	32.64820	-431.28793	565.84064	43.09890	-495.82730	599.29230	44.17259	-482.03568	553.92712	48.72050	-416.98654	469.73694	67.59961	-404.97711	457.81973	185.09384	-294.48038	406.97363	55.51231	-274.98505	368.19156	53.81040	-348.40402	371.26614	54.32886	-318.99335	339.35297	50.44213	-174.22020	121.02503	120.17978	-212.77864	134.07368	205.23672	-105.46621	110.08341	168.78264	-293.39590	38.87798	206.16646	-324.29590	52.78533	152.56067	-261.68298	30.98382	89.86204
1337	5.34400	-421.24081	1000.25494	270.41989	-591.52490	976.17993	319.83505	-613.23676	596.30786	385.53754	-626.69177	553.68396	368.84225	-660.09607	618.63232	383.10114	-673.19574	576.63397	371.98886	-667.91351	490.71005	347.82559	-665.63403	475.29044	223.81088	-638.13287	372.20007	359.34387	-649.00470	328.91132	362.97476	-699.15771	382.62799	358.49487	-701.67157	338.92090	363.22787	-725.86316	81.68384	303.60736	-743.49121	110.97802	214.87544	-671.72504	54.89030	257.08203	-855.16467	44.26403	319.16345	-905.85431	85.08926	261.97739	-869.92786	51.82251	204.86443	-415.30325	1001.67352	149.67369	-565.13794	969.75677	73.48253	-441.90100	610.31799	33.40498	-436.22168	565.34467	43.31665	-500.34937	598.65533	44.77457	-487.14871	553.58081	48.85095	-422.09836	469.42715	67.72404	-410.17700	457.29126	185.30797	-299.03214	407.80032	55.62898	-279.10217	369.22336	53.89049	-352.53229	371.59833	54.38952	-322.72079	339.97424	50.52666	-175.86911	122.83945	119.84676	-214.39586	135.68922	204.81819	-107.03258	112.86211	168.41818	-293.77258	39.01567	206.04082	-324.44855	52.72215	152.50024	-261.90387	31.06674	89.84027
1338	5.34800	-426.07584	1000.76135	270.61993	-596.46484	976.69293	320.27478	-618.76190	597.17188	386.20013	-632.14642	554.52637	369.38568	-665.56903	619.47443	383.43765	-678.73883	577.49170	372.23407	-673.43097	491.74310	348.26187	-669.18726	475.64642	223.85683	-642.83771	373.35587	360.48035	-653.39105	329.89633	364.29245	-704.10138	382.90863	358.84744	-705.91760	339.51801	363.94913	-726.42084	81.61844	303.64999	-744.13788	110.80412	214.89754	-672.59839	54.93727	257.07822	-855.33746	43.64313	319.52655	-906.77118	83.45911	262.14520	-870.43890	50.46530	204.96280	-420.26779	1001.65778	149.90266	-570.11182	969.47583	74.01369	-446.91974	610.00635	33.46918	-441.46573	564.91663	43.61871	-505.88162	598.54669	44.76067	-492.36716	553.23706	48.97560	-427.32162	469.09686	67.80966	-415.43051	456.81564	185.48303	-303.65323	408.70532	55.74076	-283.33640	370.37781	54.03440	-356.78430	371.97144	54.44359	-326.65326	340.64835	50.57289	-177.52937	124.84589	119.44331	-216.55978	136.84558	204.23111	-108.70325	115.84271	168.06384	-294.11697	39.14798	205.91272	-324.65155	52.66156	152.40532	-262.14252	31.14475	89.82708
